<?xml version="1.0" encoding="UTF-8"?>
<svg width="30px" height="30px" viewBox="0 0 30 30" version="1.1" xmlns="http://www.w3.org/2000/svg" xmlns:xlink="http://www.w3.org/1999/xlink">
    <!-- Generator: Sketch 43.2 (39069) - http://www.bohemiancoding.com/sketch -->
    <title>dribbble</title>
    <desc>Created with Sketch.</desc>
    <defs></defs>
    <g id="Page-1" stroke="none" stroke-width="1" fill="none" fill-rule="evenodd">
        <g id="dribbble" fill-rule="nonzero">
            <path d="M15,0.99609375 C22.734375,0.99609375 28.9921875,7.25390625 28.9921875,14.9765625 C28.9921875,22.6992188 22.734375,28.96875 15,28.96875 C7.265625,28.96875 1.0078125,22.7109375 1.0078125,14.9882813 C1.0078125,7.265625 7.265625,0.99609375 15,0.99609375 Z" id="Shape" fill="#E74D89"></path>
            <path d="M15,29.9648437 C6.7265625,29.9648437 0,23.25 0,14.9882812 C0,6.71484375 6.7265625,0 15,0 C23.2734375,0 30,6.71484375 30,14.9765625 C30,23.2382812 23.2734375,29.9648437 15,29.9648437 Z M27.6445312,17.0273438 C27.2109375,16.8867188 23.6835938,15.84375 19.6640625,16.4765625 C21.3398438,21.0703125 22.0195312,24.8203125 22.1484375,25.59375 C25.03125,23.6601562 27.0820312,20.5898438 27.6445312,17.0273438 Z M20.0039062,26.7773438 C19.8164062,25.6523438 19.0664062,21.7382812 17.2734375,17.0742188 C17.25,17.0859375 17.2148438,17.0976562 17.1914062,17.0976562 C9.9609375,19.6171875 7.37109375,24.6210938 7.13671875,25.0898438 C9.3046875,26.7773438 12.0351562,27.7851562 15,27.7851562 C16.7695312,27.796875 18.46875,27.4335937 20.0039062,26.7773438 L20.0039062,26.7773438 Z M5.484375,23.5546875 C5.77734375,23.0625 9.29296875,17.25 15.9023437,15.1054688 C16.0664062,15.046875 16.2421875,15 16.40625,14.953125 C16.0898437,14.2265625 15.7382812,13.5 15.3632812,12.7851563 C8.96484375,14.6953125 2.75390625,14.6132812 2.19140625,14.6015625 C2.19140625,14.7304688 2.1796875,14.859375 2.1796875,14.9882812 C2.19140625,18.28125 3.43359375,21.28125 5.484375,23.5546875 L5.484375,23.5546875 Z M2.4609375,12.375 C3.03515625,12.3867187 8.30859375,12.4101562 14.3085938,10.8164062 C12.1875,7.04296875 9.890625,3.87890625 9.5625,3.421875 C5.96484375,5.109375 3.29296875,8.4140625 2.4609375,12.375 Z M12,2.5546875 C12.3515625,3.0234375 14.6835938,6.1875 16.78125,10.0429687 C21.3398438,8.33203125 23.2617188,5.75390625 23.4960938,5.42578125 C21.234375,3.421875 18.2578125,2.203125 15,2.203125 C13.96875,2.203125 12.9609375,2.33203125 12,2.5546875 L12,2.5546875 Z M24.9140625,6.90234375 C24.6445313,7.265625 22.5,10.0195312 17.765625,11.953125 C18.0585938,12.5625 18.3515625,13.1835938 18.6210938,13.8046875 C18.7148438,14.0273437 18.8085938,14.25 18.9023438,14.4609375 C23.1679688,13.921875 27.3984375,14.7890625 27.8203125,14.8710937 C27.7851563,11.859375 26.7070313,9.08203125 24.9140625,6.90234375 L24.9140625,6.90234375 Z" id="Shape" fill="#B2215A"></path>
        </g>
    </g>
</svg>