<?xml version="1.0" encoding="UTF-8"?>
<svg width="30px" height="30px" viewBox="0 0 30 30" version="1.1" xmlns="http://www.w3.org/2000/svg" xmlns:xlink="http://www.w3.org/1999/xlink">
    <!-- Generator: Sketch 43.2 (39069) - http://www.bohemiancoding.com/sketch -->
    <title>linkedin</title>
    <desc>Created with Sketch.</desc>
    <defs>
        <polygon id="path-1" points="15 0 0 0 0 29.8983333 30 29.8983333 30 0"></polygon>
    </defs>
    <g id="Page-1" stroke="none" stroke-width="1" fill="none" fill-rule="evenodd">
        <g id="linkedin">
            <g id="Group-3">
                <mask id="mask-2" fill="white">
                    <use xlink:href="#path-1"></use>
                </mask>
                <g id="Clip-2"></g>
                <path d="M27.7783333,0 L2.21166667,0 C0.991666667,0 0,0.97 0,2.16166667 L0,27.8366667 C0,29.0333333 0.991666667,30 2.21166667,30 L27.7783333,30 C29,30 30,29.0333333 30,27.8366667 L30,2.16166667 C30,0.97 29,0 27.7783333,0" id="Fill-1" fill="#0C64A8" mask="url(#mask-2)"></path>
            </g>
            <path d="M6.67333333,4.13166667 C8.095,4.13166667 9.25333333,5.28666667 9.25333333,6.71 C9.25333333,8.135 8.095,9.29 6.67333333,9.29 C5.24333333,9.29 4.09166667,8.135 4.09166667,6.71 C4.09166667,5.28666667 5.24333333,4.13166667 6.67333333,4.13166667 L6.67333333,4.13166667 Z M4.445,25.565 L8.9,25.565 L8.9,11.2483333 L4.445,11.2483333 L4.445,25.565 Z" id="Fill-4" fill="#FFFFFF"></path>
            <path d="M11.69,11.2483333 L15.955,11.2483333 L15.955,13.2033333 L16.015,13.2033333 C16.61,12.0783333 18.0616667,10.8916667 20.2266667,10.8916667 C24.73,10.8916667 25.5616667,13.8566667 25.5616667,17.7133333 L25.5616667,25.565 L21.1166667,25.565 L21.1166667,18.6033333 C21.1166667,16.9416667 21.0833333,14.8066667 18.8033333,14.8066667 C16.4883333,14.8066667 16.135,16.615 16.135,18.4816667 L16.135,25.565 L11.69,25.565 L11.69,11.2483333" id="Fill-5" fill="#FFFFFF"></path>
        </g>
    </g>
</svg>