<?xml version="1.0" encoding="UTF-8"?>
<svg width="30px" height="24px" viewBox="0 0 30 24" version="1.1" xmlns="http://www.w3.org/2000/svg" xmlns:xlink="http://www.w3.org/1999/xlink">
    <!-- Generator: Sketch 43.2 (39069) - http://www.bohemiancoding.com/sketch -->
    <title>twitter</title>
    <desc>Created with Sketch.</desc>
    <defs></defs>
    <g id="Checkout" stroke="none" stroke-width="1" fill="none" fill-rule="evenodd">
        <g id="Order-success-page---social" transform="translate(-618.000000, -637.000000)" fill="#1DA1F2">
            <g id="main-content" transform="translate(135.000000, 103.000000)">
                <g id="main-content__bg">
                    <g id="Group-5" transform="translate(171.000000, 521.000000)">
                        <g id="Group-4" transform="translate(297.000000, 0.000000)">
                            <path d="M41.94708,19.7615982 C41.94708,19.499247 41.94168,19.238077 41.92944,18.9783244 C43.13112,18.1232318 44.17584,17.0562266 45,15.8413312 C43.89708,16.3235094 42.71028,16.648584 41.46528,16.7950566 C42.73608,16.0452116 43.71168,14.8583114 44.17176,13.4436701 C42.98232,14.1376429 41.66556,14.6423825 40.2636,14.9141836 C39.14052,13.7366152 37.54092,13 35.77092,13 C32.37156,13 29.61504,15.713404 29.61504,19.0582937 C29.61504,19.533857 29.66916,19.9960724 29.77464,20.4397425 C24.6594,20.1866048 20.1234,17.7755958 17.088,14.1096477 C16.55892,15.004784 16.25448,16.0452116 16.25448,17.1547412 C16.25448,19.2568585 17.34108,21.1124531 18.99336,22.1980037 C17.98392,22.1674099 17.03532,21.8943094 16.20576,21.4400083 C16.20432,21.4652866 16.20432,21.490683 16.20432,21.5172607 C16.20432,24.4519092 18.32628,26.9015445 21.14232,27.457077 C20.62548,27.5955172 20.0814,27.670171 19.5198,27.670171 C19.12332,27.670171 18.73764,27.6315448 18.36276,27.5609072 C19.14636,29.9680182 21.41844,31.7196645 24.11268,31.76904 C22.00572,33.3940584 19.35204,34.362431 16.46832,34.362431 C15.97164,34.362431 15.4818,34.3345539 15,34.2785636 C17.72412,35.9968993 20.95836,37 24.43476,37 C35.75604,37 41.94708,27.7673862 41.94708,19.7615982 Z" id="twitter"></path>
                        </g>
                    </g>
                </g>
            </g>
        </g>
    </g>
</svg>